<?xml version="1.0" encoding="UTF-8"?>
<svg id="squiggly" data-name="squiggly" xmlns="http://www.w3.org/2000/svg" viewBox="0 0 381.18 281.52">
  <g id="squiggly-g" data-name="squiggly-g">
    <path d="M381.18,140.76c0,10.21-27.01,16.07-30.16,25.59s15.39,29.86,9.57,38.33-31.68-1.35-39.35,5.63c-7.21,6.56.25,33.3-8.59,38.73-8.33,5.12-29.1-13.4-38.66-9.45s-10.43,31.54-20.42,34.11-24.26-21.16-34.46-19.91-18.26,27.73-28.53,27.73-18.74-26.53-28.52-27.73-24.93,22.36-34.46,19.91-11.35-30.36-20.42-34.11c-9.56-3.95-30.33,14.56-38.66,9.45-8.84-5.43-1.37-32.16-8.59-38.73-7.67-6.98-33.82,2.42-39.35-5.63-5.82-8.47,12.68-28.92,9.57-38.33S0,150.97,0,140.76s27.01-16.07,30.16-25.59-15.39-29.86-9.57-38.33c5.54-8.05,31.68,1.35,39.35-5.63,7.21-6.56-.25-33.3,8.59-38.73,8.33-5.12,29.1,13.4,38.66,9.45s10.43-31.54,20.42-34.11,24.26,21.16,34.46,19.91c9.79-1.2,18.26-27.73,28.53-27.73s18.74,26.53,28.52,27.73,24.93-22.36,34.46-19.91,11.35,30.36,20.42,34.11c9.56,3.95,30.33-14.56,38.66-9.45,8.84,5.43,1.37,32.16,8.59,38.73,7.67,6.98,33.82-2.42,39.35,5.63,5.82,8.47-12.68,28.92-9.57,38.33s30.15,15.37,30.15,25.58Z"/>
  </g>
</svg>