<svg id="sparkle" data-name="sparkle" xmlns="http://www.w3.org/2000/svg" viewBox="0 0 130.52 130.52">
  <path style='fill: black;' class="cls-1" d="m52.41,30.57l7.53-26.55c1.52-5.36,9.12-5.36,10.64,0l7.53,26.55c3,10.57,11.26,18.84,21.84,21.84l26.55,7.53c5.36,1.52,5.36,9.12,0,10.64l-26.55,7.53c-10.57,3-18.84,11.26-21.84,21.84l-7.53,26.55c-1.52,5.36-9.12,5.36-10.64,0l-7.53-26.55c-3-10.57-11.26-18.84-21.84-21.84l-26.55-7.53c-5.36-1.52-5.36-9.12,0-10.64l26.55-7.53c10.57-3,18.84-11.26,21.84-21.84Z"/>
</svg>