<svg id="logo" xmlns="http://www.w3.org/2000/svg" viewBox="0 0 457.5 106.5">
  <g>
    <g>
      <path class="cls-1" d="M59.1,9.3h10.7l5.2,16.5h0l5.7-16.5h8.9l5.7,16.5h0l5.2-16.5h10.7l-9.1,25.1h-11.7l-5.3-14.8h0l-5.3,14.8h-11.7l-9.1-25.1Z"/>
      <path class="cls-1" d="M114.3,17.2c.9-7.5,8-8.5,15.7-8.5s16,1.5,16,8.5v12.7c0,2.1.2,3.1,1,4.5h-9.8c-.3-.7-.5-1.6-.5-2.3-2.8,2.7-6.9,3.3-11.8,3.3-8,0-12.3-2.6-12.3-7.8s3.8-7.7,10.8-8.2l9.8-.7c2.5-.2,3-.7,3-2s-1.9-2.7-6.2-2.7-5.4,1-5.8,3.1h-9.8ZM136.5,22.7c-.7.2-1.9.5-3.8.7l-6.6.8c-2,.2-2.8,1-2.8,2.5s1.8,3.1,4.4,3.1c5.6,0,8.8-2.1,8.8-5.6v-1.5Z"/>
      <path class="cls-1" d="M167,.5h9.8v17.6l9.8-8.8h13.3l-11.6,9.3,12.7,15.8h-13.3l-7.1-9.5-3.8,3v6.5h-9.8V.5Z"/>
      <path class="cls-1" d="M236.2,26.9c-1.2,4.2-6,8.5-16.7,8.5s-17.6-4.3-17.6-13.6,6.9-13.5,17.3-13.5,17.4,4.7,17.4,15.1v.7h-24.6c.5,3.2,2.8,5.6,7.9,5.6s4.8-1.3,5.9-2.8h10.4ZM226.6,19.1c-.6-2.8-2.6-5.1-7.3-5.1s-6.7,2.4-7.3,5.1h14.5Z"/>
      <path class="cls-1" d="M240.9,9.3h9.7v5h0c1.9-3.3,5.8-5.6,10.2-5.6s2.4,0,3.3.3v9.2c-1.2-.5-3.6-.8-5.4-.8-5.6,0-8.1,2.9-8.1,7.4v9.7h-9.8V9.3Z"/>
    </g>
    <g>
      <path class="cls-1" d="M200,60.5c-1.2,4.2-6,8.5-16.7,8.5s-17.6-4.3-17.6-13.6,6.9-13.5,17.3-13.5,17.4,4.7,17.4,15.1v.7h-24.6c.5,3.2,2.8,5.6,7.9,5.6s4.8-1.3,5.9-2.8h10.4ZM190.3,52.6c-.6-2.8-2.6-5.1-7.3-5.1s-6.7,2.4-7.3,5.1h14.5Z"/>
      <path class="cls-1" d="M.6,42.8h10.7l5.2,16.5h0l5.7-16.5h8.9l5.7,16.5h0l5.2-16.5h10.7l-9.1,25.1h-11.7l-5.3-14.8h0l-5.3,14.8h-11.7L.6,42.8Z"/>
      <path class="cls-1" d="M71.7,41.8c11.3,0,17.6,4.7,17.6,13.6s-6.3,13.6-17.6,13.6-17.6-4.7-17.6-13.6,6.3-13.6,17.6-13.6ZM64.4,55.4c0,4.7,2.8,7.1,7.2,7.1s7.2-2.4,7.2-7.1-2.8-7.1-7.2-7.1-7.2,2.4-7.2,7.1Z"/>
      <path class="cls-1" d="M93.1,42.8h9.5v3.6h0c2-2.5,5.6-4.3,10.6-4.3s10.7,3,10.7,9.2v16.5h-9.8v-13.6c0-3.2-1.8-4.8-5.1-4.8s-6.1,1.9-6.1,6v12.3h-9.8v-25.1Z"/>
      <path class="cls-1" d="M151.8.5v45.5h0c-1.7-2.4-5-3.8-9.4-3.8-9.2,0-14.6,5.9-14.6,13.2s5.8,13.6,14.7,13.6,7.5-1.4,9.5-4h0v3h9.5V.5h-9.8ZM144.8,61.8c-4.5,0-6.9-2.2-6.9-6.4s2.5-6.4,6.9-6.4,7,2.5,7,6.4-2.4,6.4-7,6.4Z"/>
      <path class="cls-1" d="M204.7,42.8h9.7v5h0c1.9-3.3,5.8-5.6,10.2-5.6s2.4,0,3.3.3v9.2c-1.2-.5-3.6-.8-5.4-.8-5.6,0-8.1,2.9-8.1,7.4v10.2h-9.8v-25.6Z"/>
    </g>
  </g>
  <g>
    <path class="cls-2" d="M261.4,57c-4,.8-7.7,1.7-8.6-.3s6.6-4.4,9.5-5c.6-.1,1.2-.2,1.8-.4.3,0,.5,0,.8-.1.9-.1,1.9-.2,2.8-.2,7.1.2,7.1-13.1,0-13.3-4.6-.2-9.5,1.2-13.9,2.5-5.3,1.6-10.9,3.7-15.5,7.3-4.4,3.4-8.2,8.9-6.4,15.6,1.6,6,6.8,7.7,11.5,7.9,4.9.2,16-2.3,16,.5,0,2.8-9.2,4.4-15.9,5.6-1.4.3-2.2.4-4,.6-1.5.2-3.1.4-4.6.5-2.7.2-5.4.3-8,.1-3-.2-5.5,3.2-5.5,6.7s2.5,6.5,5.5,6.7c11.3.8,23.2-1.7,34-5.4,7.9-2.7,23.9-8.8,21.2-22.5-2.4-12.3-16.7-7.8-20.7-7Z"/>
    <path class="cls-2" d="M310.1,45.5c3.5.1,6.8-3.1,6.7-6.7-.2-3.7-2.9-6.6-6.7-6.7-.5,0-1,0-1.6,0-3,0-5.3-2.6-5-5.6s.5-4.3.8-6.4c.5-3.6-3.4-6.7-6.7-6.7s-6.2,3.1-6.7,6.7c-.4,2.9-.7,5.7-1,8.6s-2.1,4.2-4.4,4.5-2.2.2-3.2.4c-1.8.2-3.3.6-4.7,2-1.2,1.2-2,3.1-2,4.7.1,3.2,3,7.1,6.7,6.7,0,0,0,0,0,0,3.1-.4,5.8,2.2,5.6,5.4-.9,15.9-1.1,31.9-.4,47.9.4,8.5,13.7,8.6,13.3,0-.7-16.6-.5-33.3.5-49.9.2-2.7,2.5-4.8,5.2-4.8s2.3,0,3.4,0Z"/>
    <path class="cls-2" d="M348.4,45.9c-2.9-1.5-7.7-1-9.1,2.4-1.3,3.1-2.8,6.1-4.4,9-1.4,2.6-2.9,5.2-4.6,7.7-.4.6-.9,1.3-1.3,1.9-.2.3-.4.6-.6.9,0,0,0,0,0,0-.9,1.1-1.8,2.2-2.8,3.2-.5.5-.9.9-1.5,1.4,0,0,0,0,0,0-.1.1-.3.2-.4.3-.4.3-.8.5-1.2.7,0,0,0,0-.1,0-.1-.1-.3-.3-.4-.4,0-.1-.1-.2-.2-.3,0-.2-.1-.5-.2-.7,0-.2,0-.4,0-.7,0-.3,0-.6,0-1,0,0,0,0,0,0,.3-1.4.6-2.7,1.1-4.1.1-.4.3-.7.4-1.1.3-.7.6-1.4,1-2.1,1.5-2.9,3.2-5.7,5.1-8.4.3-.5.7-1,1-1.4.1,0,.4-.4.5-.7-.2.3-.4.6-.5.6,0,0,0,0,0,0,.2-.2.3-.4.5-.6.3-.4.3-.4.2-.2,0,0,0,0,0,0,2.2-2.7,2.8-6.8,0-9.4-2.5-2.3-7-2.9-9.4,0-3.1,3.8-6,7.9-8.3,12.2-3.9,7.2-7.1,16.2-3.1,24.1,1.8,3.5,5.6,6.7,9.5,7.4,3.9.7,7.8-.2,11-2.4,6.1-4.2,10.4-10.5,14-16.8,2.3-3.9,4.4-8,6.2-12.2,1.4-3.2,1.1-7.3-2.4-9.1Z"/>
    <path class="cls-2" d="M404.6,26.3c1.5-3.2.9-7.2-2.4-9.1-2.9-1.7-7.5-.9-9.1,2.4-3.1,6.3-5.7,12.8-9.4,18.8-2.3,3.8-4.6,7.7-6.8,11.7-.9,1.7-2.9,2.5-4.8,2s-1-.3-1.6-.3c-9.5-1-16.1,6.9-19.6,14.8-1.9,4.3-3.2,9-1.8,13.7,1.2,4.3,4.2,8,8.8,8.7,6.8,1,12.7-4.9,16.6-9.8,5.4-6.8,9.5-14.9,13.9-22.4,5.8-9.9,11.3-20,16.2-30.3ZM362.8,72.3c-2.9-1.6,3-8.2,5-6.8,2,1.4-2.1,8.3-5,6.8Z"/>
    <path class="cls-2" d="M415.4,35.7c-3.5-1.8-6.9-.6-9.1,2.4-8.7,11.9-15.5,25.1-20.4,39-1.2,3.3,1.3,7.4,4.7,8.2,3.7.9,6.9-1.1,8.2-4.7.6-1.7,1.2-3.3,1.9-5,.3-.7.6-1.5.9-2.2,0,0,.7-1.5.7-1.7,1.4-3.1,2.9-6.2,4.5-9.3,3.3-6.2,7-12.1,11.1-17.7,2.1-2.8.6-7.5-2.4-9.1Z"/>
    <path class="cls-2" d="M422,33.2c8.6,0,8.6-13.3,0-13.3s-8.6,13.3,0,13.3Z"/>
    <path class="cls-2" d="M452.5,41.9c-7.7-5.5-21.5.7-29.3,8.8-7.8,8.1-14.6,24.3-7.7,33.6,7,9.4,22.7,5.7,30.9-4.9,8.3-10.6,15.5-30.9,6-37.6ZM430.8,69c-7.1-5.3,9.6-23.4,14.5-18.8,4.9,4.6-7.4,24.1-14.5,18.8Z"/>
  </g>
  <path class="cls-3" d="M212.2,88H9.5v-9.8h202.8s-1.5,2.6-1.5,4.9,1.5,4.9,1.5,4.9Z"/>
</svg>